<?xml version="1.0" encoding="UTF-8"?>
<svg version="1.1" xmlns="http://www.w3.org/2000/svg" viewBox="700 243 560 560" width="560" height="560">
<path d="M0 0 C1.02134033 0.45076904 2.04268066 0.90153809 3.0949707 1.3659668 C4.19413818 1.88843994 5.29330566 2.41091309 6.42578125 2.94921875 C7.03878586 3.23899597 7.65179047 3.52877319 8.28337097 3.82733154 C9.60556755 4.45245904 10.92710705 5.07897786 12.24804688 5.70675659 C15.7930088 7.3908336 19.34348685 9.06316931 22.89453125 10.734375 C24.00050156 11.25498756 24.00050156 11.25498756 25.1288147 11.78611755 C38.35432724 17.99798188 51.68770447 23.97718975 65 30 C65.70959002 73.79904247 66.22721277 117.59581961 66.51765925 161.39961118 C66.55294973 166.72152365 66.58952823 172.04342613 66.62667847 177.36532593 C66.94125641 222.57690846 67.16352564 267.78720103 67 313 C67.79863464 312.61321075 68.59726929 312.22642151 69.42010498 311.82791138 C98.50386247 297.74822024 98.50386247 297.74822024 111.25 291.875 C112.37921875 291.35164063 113.5084375 290.82828125 114.671875 290.2890625 C117.7779875 288.85212261 120.88780476 287.42370849 124 286 C124.89783203 285.5865332 125.79566406 285.17306641 126.72070312 284.74707031 C127.52958984 284.37936523 128.33847656 284.01166016 129.171875 283.6328125 C129.86893555 283.3145752 130.56599609 282.99633789 131.28417969 282.66845703 C133 282 133 282 135 282 C135 212.04 135 142.08 135 70 C139.12569928 70.82513986 141.83940931 71.69729951 145.55859375 73.44921875 C146.65260498 73.96105713 147.74661621 74.47289551 148.8737793 75.00024414 C150.04980713 75.55703857 151.22583496 76.11383301 152.4375 76.6875 C153.67137323 77.26674377 154.90550906 77.84542846 156.13989258 78.42358398 C158.74493037 79.64459963 161.34856642 80.86853514 163.95117188 82.09472656 C170.03880131 84.96159674 176.13707882 87.80566493 182.2348938 90.65078735 C184.14408132 91.54222691 186.05248024 92.43533426 187.96069336 93.32885742 C189.14284424 93.88162354 190.32499512 94.43438965 191.54296875 95.00390625 C193.0902063 95.72815796 193.0902063 95.72815796 194.66870117 96.46704102 C198.76140538 98.35037482 202.88306102 100.17024934 207 102 C207 172.62 207 243.24 207 316 C195.31502963 322.14998441 183.63939389 328.25193542 171.82421875 334.13671875 C170.31522727 334.89025049 168.80632937 335.64396964 167.29751587 336.39785767 C164.09269097 337.99871099 160.88725377 339.59832868 157.68130493 341.19692993 C152.59067866 343.73537252 147.50165783 346.27702262 142.4128418 348.8190918 C130.69508844 354.67199671 118.97531443 360.52085088 107.25550842 366.36964417 C96.49752442 371.73849136 85.73999194 377.10823841 74.98408604 382.4812479 C70.76291222 384.58977353 66.54132193 386.69745569 62.31869507 388.80307007 C38.51485603 400.66513749 38.51485603 400.66513749 14.93978882 412.97357178 C11.31177751 414.89331333 7.65543887 416.75816084 4 418.625 C3.3373967 418.96714035 2.6747934 419.3092807 1.99211121 419.66178894 C-0.87758591 421.10619432 -2.73999075 422 -6 422 C-6.33 306.5 -6.66 191 -7 72 C-19.54 78.27 -32.08 84.54 -45 91 C-57.125 96.8125 -57.125 96.8125 -62.4453125 99.33203125 C-69.61602561 102.75044505 -76.70328143 106.33655393 -83.79998779 109.90512085 C-92.65496238 114.35553833 -101.55535965 118.69219502 -110.51245117 122.93286133 C-118.89825005 126.91583812 -127.19163003 131.07625328 -135.46191406 135.29345703 C-136.41936523 135.7779834 -137.37681641 136.26250977 -138.36328125 136.76171875 C-139.21188721 137.19444092 -140.06049316 137.62716309 -140.93481445 138.07299805 C-143 139 -143 139 -145 139 C-144.67 186.19 -144.34 233.38 -144 282 C-121.00623283 292.34719523 -98.00858882 302.68580501 -75 313 C-75 337.09 -75 361.18 -75 386 C-81.74943482 383.75018839 -81.74943482 383.75018839 -85.07983398 382.11157227 C-85.82686081 381.74639999 -86.57388763 381.38122772 -87.34355164 381.00498962 C-88.13639053 380.61275711 -88.92922943 380.2205246 -89.74609375 379.81640625 C-91.00490105 379.19947655 -91.00490105 379.19947655 -92.28913879 378.57008362 C-94.07990884 377.69200259 -95.86986051 376.8122509 -97.65905762 375.93096924 C-102.32508067 373.63280785 -106.9970253 371.34673296 -111.66796875 369.05859375 C-112.5805545 368.61108765 -113.49314026 368.16358154 -114.43338013 367.70251465 C-121.02169075 364.4732024 -127.62447064 361.27737527 -134.25 358.125 C-142.6383126 354.13153414 -151.0103436 350.10524005 -159.375 346.0625 C-168.62069597 341.59520015 -177.86888443 337.13318553 -187.125 332.6875 C-188.04587402 332.2447876 -188.96674805 331.8020752 -189.91552734 331.34594727 C-199.26005993 326.86080142 -208.63216439 322.43739582 -218 318 C-218 247.38 -218 176.76 -218 104 C-165.07763796 77.33730381 -165.07763796 77.33730381 -142.93359375 66.22265625 C-137.87338146 63.68276051 -132.81329481 61.14261472 -127.75341797 58.60205078 C-127.11922624 58.28363618 -126.48503452 57.96522157 -125.83162487 57.63715804 C-115.58884672 52.49401334 -105.35322553 47.33677874 -95.12017028 42.17432116 C-84.62069415 36.87785054 -74.11368879 31.59655579 -63.59951746 26.32931626 C-57.69307812 23.36956754 -51.79038553 20.40283346 -45.89591599 17.41930771 C-40.3510785 14.6130269 -34.79720781 11.82553139 -29.23575211 9.05233765 C-27.19324529 8.02970533 -25.15417361 7.00017942 -23.11882019 5.96338272 C-20.34469332 4.55153566 -17.55940513 3.1647452 -14.76986694 1.78366089 C-13.96246295 1.36539469 -13.15505896 0.94712848 -12.32318819 0.51618755 C-7.51989839 -1.82173634 -5.04434566 -2.52063251 0 0 Z " fill="#166533" transform="translate(986,318)"/>
<path d="M0 0 C3.55521277 0.58924328 6.43168241 1.52907716 9.64944458 3.14097595 C10.55441681 3.59067749 11.45938904 4.04037903 12.39178467 4.50370789 C13.37253967 4.99869278 14.35329468 5.49367767 15.36376953 6.00366211 C16.40687286 6.52419159 17.4499762 7.04472107 18.52468872 7.58102417 C21.98032854 9.30733785 25.43158675 11.04222451 28.8828125 12.77734375 C31.29582932 13.9861662 33.70968992 15.19329973 36.12350464 16.40052795 C41.19454296 18.93789397 46.26330802 21.47975246 51.33056641 24.0246582 C57.77486927 27.26112413 64.22276531 30.49035967 70.67190742 33.71716976 C76.27081162 36.51863777 81.8680166 39.32349517 87.46496344 42.1288712 C89.23395465 43.01538757 91.00317762 43.90144143 92.77240372 44.78748894 C104.20648201 50.51648742 115.61060548 56.28470472 126.90847778 62.27818108 C136.0279962 67.10007531 145.26423832 71.68814576 154.4978981 76.28653145 C157.77716601 77.9196709 161.05509837 79.5554649 164.33273315 81.19187927 C171.26234858 84.65104083 178.19356297 88.10699032 185.125 91.5625 C193.22658072 95.60147602 201.32749516 99.64177735 209.426754 103.68540764 C212.65951482 105.29854334 215.893467 106.90927299 219.12747192 108.51991272 C221.0878065 109.49826578 223.04808592 110.47672938 225.00830078 111.45532227 C226.36074387 112.12766907 226.36074387 112.12766907 227.74050903 112.81359863 C228.96350708 113.42504478 228.96350708 113.42504478 230.21121216 114.04884338 C230.9230472 114.4036506 231.63488224 114.75845781 232.36828804 115.12401676 C234 116 234 116 235 117 C235.14746621 119.66248787 235.23005051 122.30127174 235.27210999 124.96621704 C235.28929862 125.81187363 235.30648725 126.65753022 235.32419676 127.52881277 C235.3810633 130.38713951 235.43085539 133.24554692 235.48071289 136.10400391 C235.51985943 138.14610062 235.55942521 140.18818934 235.59938049 142.23027039 C235.70722073 147.80955588 235.80881022 153.38893967 235.90911031 158.96836519 C236.01554169 164.84414984 236.12685177 170.7198424 236.2374115 176.59555054 C236.42324399 186.51415902 236.60499538 196.43283624 236.78442383 206.3515625 C236.98965799 217.69389144 237.20135032 229.03608509 237.41671187 240.37822592 C237.62528318 251.37226885 237.82876549 262.366401 238.03021049 273.36057663 C238.11510215 277.9884597 238.2016776 282.61630618 238.28978157 287.24412918 C238.86996052 317.83288036 239.11663833 348.40576909 239 379 C237.88538045 379.60210391 237.88538045 379.60210391 236.74824333 380.21637154 C235.77154245 380.74399023 234.79484158 381.27160892 233.7885437 381.81521606 C232.82116713 382.33779055 231.85379055 382.86036503 230.85709953 383.3987751 C222.54702358 387.88892668 214.24611998 392.39317533 206 397 C199.0316458 400.89262273 192.02291574 404.70675678 185 408.5 C178.08467686 412.23642255 171.1782414 415.98564037 164.3125 419.8125 C163.61576172 420.20083008 162.91902344 420.58916016 162.20117188 420.98925781 C161.47091797 421.3962793 160.74066406 421.80330078 159.98828125 422.22265625 C153.6664925 425.74556534 147.3348076 429.2505696 141 432.75 C140.07247925 433.26238724 140.07247925 433.26238724 139.1262207 433.78512573 C129.13037415 439.30359834 119.09144571 444.73717255 109.03051758 450.13623047 C100.84647471 454.53214444 92.71840977 459.01995804 84.60693359 463.54785156 C79.07812844 466.62757933 73.53974114 469.69000144 68 472.75 C67.38213623 473.09134979 66.76427246 473.43269958 66.12768555 473.78439331 C56.10588369 479.31787453 46.04164298 484.76755704 35.94921875 490.17138672 C29.08776133 493.85191536 22.27319912 497.60287053 15.53979492 501.51342773 C11.2103823 504 11.2103823 504 9 504 C9 503.01 9 502.02 9 501 C9.90987671 500.51140503 9.90987671 500.51140503 10.83813477 500.01293945 C22.03786181 493.99136624 33.20399656 487.92484953 44.25 481.625 C53.34752993 476.44070815 62.54673935 471.46327906 71.79110718 466.5475769 C80.9137231 461.69372851 89.93521776 456.68400125 98.91015625 451.5625 C105.47674569 447.82729112 112.11863897 444.27401662 118.82324219 440.79418945 C124.89925137 437.62269487 130.86145657 434.27434635 136.8125 430.875 C145.89575094 425.69089311 155.07410066 420.71228074 164.3125 415.8125 C173.06225424 411.17150352 181.79104403 406.50536636 190.42993164 401.65991211 C197.6926061 397.59209762 205.02372085 393.65248009 212.3515625 389.70361328 C219.16985273 386.01957272 225.91142905 382.23109113 232.5859375 378.29296875 C235 377 235 377 237 377 C236.90008428 375.54192161 236.90008428 375.54192161 236.79815006 374.05438709 C236.01273641 362.04206606 235.72403059 350.04291988 235.51928711 338.00854492 C235.48002292 335.85131812 235.44045831 333.69409676 235.40061951 331.53688049 C235.29420949 325.72686587 235.19209189 319.91678324 235.09088969 314.10667586 C234.98374988 307.99281369 234.8729169 301.87901832 234.7625885 295.76521301 C234.5778804 285.49935959 234.39585479 275.23346141 234.21557617 264.9675293 C234.00796087 253.14609201 233.79667862 241.32472485 233.58328813 229.50339049 C233.37703991 218.07562311 233.17286035 206.64781976 232.96978951 195.2199955 C232.88383118 190.38281554 232.79726807 185.54564699 232.71021843 180.70848656 C232.60755827 174.99644889 232.50675734 169.28438113 232.40731239 163.57228661 C232.37083445 161.49240048 232.33377402 159.41252446 232.2960434 157.33266068 C232.05867294 144.22015982 231.95485791 131.11465407 232 118 C231.1663174 117.74560905 230.33263479 117.49121811 229.47368908 117.22911835 C225.63349483 115.87031706 222.05128719 114.16288253 218.42097473 112.33410645 C217.6778803 111.96376644 216.93478587 111.59342643 216.16917342 111.21186399 C213.68744673 109.97381122 211.20861298 108.7300763 208.72973633 107.48632812 C206.94706304 106.59552818 205.16421658 105.70507472 203.38121033 104.81494141 C198.53976281 102.39664114 193.70083076 99.97334685 188.86238313 97.54905128 C183.78235072 95.00463399 178.70020238 92.46444966 173.61833191 89.92370605 C165.07011592 85.6491296 156.52345436 81.37145846 147.9777832 77.09179688 C138.14141026 72.16578171 128.30298069 67.24389541 118.46332723 62.32443666 C107.94809436 57.06716021 97.43439459 51.80682344 86.92112899 46.54561424 C83.91480304 45.04139303 80.90819872 43.53772951 77.90152931 42.03419495 C73.13912683 39.65248488 68.3777679 37.26870039 63.61715126 34.88342285 C61.88551561 34.01616541 60.15355966 33.14954711 58.42123032 32.28367615 C48.68101457 27.4145932 38.99267787 22.46213965 29.37347966 17.35747194 C22.32741977 13.6210067 15.18274432 10.1117306 7.98046875 6.68554688 C6.62501953 6.02329102 6.62501953 6.02329102 5.2421875 5.34765625 C4.4466748 4.96617432 3.65116211 4.58469238 2.83154297 4.19165039 C1 3 1 3 0 0 Z " fill="#166533" transform="translate(992,271)"/>
<path d="M0 0 C-1.50248977 4.33035619 -4.16896474 5.4917692 -8.125 7.5390625 C-8.73910736 7.86133316 -9.35321472 8.18360382 -9.9859314 8.51564026 C-11.98541511 9.56243582 -13.99261493 10.59345109 -16 11.625 C-18.0775534 12.70902997 -20.1529435 13.79713015 -22.22836304 14.88523865 C-23.5997352 15.60370362 -24.97182469 16.32080109 -26.34463501 17.03651428 C-31.4006748 19.67352221 -36.40604234 22.3895036 -41.375 25.1875 C-48.21488721 29.02439119 -55.09916203 32.77385953 -62 36.5 C-69.6231106 40.6187038 -77.22640366 44.76808117 -84.79443359 48.98706055 C-91.89541659 52.94556433 -99.00801464 56.88286205 -106.125 60.8125 C-106.74823151 61.15669983 -107.37146301 61.50089966 -108.01358032 61.85552979 C-117.4257983 67.0516954 -126.87151074 72.18265123 -136.3359375 77.28320312 C-142.9813706 80.87616729 -149.56333508 84.56911081 -156.125 88.3125 C-165.62766594 93.73091847 -175.2483182 98.90029896 -184.91693115 104.01382446 C-194.77415648 109.2292467 -204.51897235 114.60356287 -214.171875 120.19140625 C-215.0484375 120.69542969 -215.925 121.19945312 -216.828125 121.71875 C-217.5902832 122.16154297 -218.35244141 122.60433594 -219.13769531 123.06054688 C-221 124 -221 124 -223 124 C-222.9854606 124.75328362 -222.97092119 125.50656725 -222.9559412 126.28267765 C-222.59639581 144.91176279 -222.23719971 163.54085464 -221.87835789 182.16995335 C-221.70479236 191.1801185 -221.53112009 200.19028157 -221.35717773 209.20043945 C-220.99245552 228.09566546 -220.62911411 246.99091648 -220.26942539 265.88623905 C-220.11311873 274.09448693 -219.95566442 282.30270989 -219.7956993 290.51088732 C-219.68571243 296.16026821 -219.57805433 301.80969145 -219.47134209 307.45913506 C-219.42922674 309.66923993 -219.38635556 311.87933059 -219.34257698 314.08940315 C-218.88842545 337.05884357 -218.8968257 360.02705076 -219 383 C-217.79806283 383.35718896 -217.79806283 383.35718896 -216.5718441 383.72159386 C-212.14330138 385.30662278 -208.04745366 387.34157356 -203.85049438 389.45449829 C-202.93881921 389.90948145 -202.02714404 390.36446461 -201.08784235 390.83323514 C-198.03662845 392.35719633 -194.98830716 393.88685455 -191.93994141 395.41650391 C-189.75206394 396.51072473 -187.56401021 397.60459321 -185.37579346 398.69813538 C-180.66670986 401.05244953 -175.9588621 403.40920798 -171.25212479 405.76820755 C-164.44701831 409.17889678 -157.63970029 412.58515217 -150.83183889 415.99033849 C-139.78590152 421.51549439 -128.74175446 427.04421907 -117.69873047 432.57519531 C-106.97310689 437.94718975 -96.24664221 443.31749876 -85.51904297 448.68554688 C-84.85750629 449.01657794 -84.19596961 449.347609 -83.51438637 449.68867131 C-80.19556014 451.34938948 -76.87671735 453.01007458 -73.55786633 454.67074323 C-46.03600923 468.44203411 -18.51708661 482.21917924 9 496 C9 496.99 9 497.98 9 499 C4.71322138 498.36974211 1.35413572 496.86146856 -2.50830078 494.92407227 C-3.14175415 494.60836777 -3.77520752 494.29266327 -4.42785645 493.96739197 C-6.51995758 492.92284351 -8.60763223 491.86975905 -10.6953125 490.81640625 C-12.16699143 490.07903472 -13.63890943 489.34214015 -15.11105347 488.60569763 C-18.20462284 487.05661084 -21.29618965 485.50362294 -24.38623047 483.94750977 C-28.28824491 481.98254526 -32.19355688 480.02425865 -36.10026741 478.06865025 C-39.88319996 476.17456057 -43.66427772 474.27678062 -47.4453125 472.37890625 C-48.14006809 472.03058809 -48.83482368 471.68226994 -49.55063248 471.32339668 C-56.4978465 467.83766804 -63.42313939 464.31916925 -70.2875452 460.67265797 C-84.3292326 453.21559032 -98.56775795 446.1515743 -112.79269958 439.05295324 C-116.61036078 437.1472932 -120.42685486 435.23929845 -124.2434845 433.33157349 C-131.43857061 429.73557148 -138.63467189 426.14160604 -145.83115989 422.54841053 C-154.03781183 418.45071419 -162.24329941 414.35068881 -170.44870031 410.25048804 C-187.29785875 401.8311056 -204.14844369 393.41458194 -221 385 C-221.73018617 369.79664908 -222.2180498 354.60560115 -222.48071289 339.38745117 C-222.52002419 337.23594726 -222.55958794 335.08444795 -222.59938049 332.93295288 C-222.70528499 327.16680702 -222.8075986 321.40060285 -222.90911031 315.63437819 C-223.0166192 309.55832612 -223.12723404 303.48233045 -223.2374115 297.40632629 C-223.42175222 287.21501114 -223.60382687 277.02365753 -223.78442383 266.83227539 C-223.99245848 255.09361407 -224.2036869 243.35501365 -224.41671187 231.61644191 C-224.62277851 220.25913183 -224.82698046 208.90178904 -225.03021049 197.54442787 C-225.11620559 192.73908854 -225.20276507 187.93375989 -225.28978157 183.12843895 C-225.39227269 177.46228884 -225.49309459 171.79611128 -225.59268761 166.12990952 C-225.62922154 164.0653047 -225.66628647 162.0007092 -225.7039566 159.9361248 C-225.80340202 154.47549741 -225.8890745 149.01499356 -225.95921254 143.55391288 C-226.0007509 140.95298235 -226.06678207 138.35338908 -226.13485527 135.75303078 C-226.16504737 134.11122851 -226.19466301 132.4694155 -226.22361755 130.82759094 C-226.26219127 129.70641492 -226.26219127 129.70641492 -226.30154425 128.56258887 C-226.36447541 123.49877669 -226.36447541 123.49877669 -224.5117197 120.96332073 C-222.42363855 119.55745585 -220.37455091 118.83441228 -218 118 C-216.04147228 116.95806325 -214.09701506 115.8894306 -212.1640625 114.80078125 C-209.98560479 113.63571843 -207.80586119 112.47305756 -205.625 111.3125 C-198.12029725 107.29504676 -190.61960215 103.27551033 -183.1875 99.125 C-182.15737793 98.54999756 -182.15737793 98.54999756 -181.10644531 97.96337891 C-179.60953275 97.1277759 -178.11262548 96.29216342 -176.61572266 95.45654297 C-171.04294511 92.35338907 -165.45900324 89.27039246 -159.875 86.1875 C-159.25158722 85.84320953 -158.62817444 85.49891907 -157.98587036 85.14419556 C-148.57383784 79.9481165 -139.12830962 74.81725195 -129.6640625 69.71679688 C-123.0186294 66.12383271 -116.43666492 62.43088919 -109.875 58.6875 C-100.36342926 53.26400402 -90.73188543 48.09423685 -81.05688477 42.97106934 C-71.83202088 38.08318159 -62.70469357 33.05648633 -53.64086914 27.87426758 C-44.7921963 22.83493085 -35.81512997 18.04525281 -26.82397461 13.26708984 C-19.57441261 9.40709857 -12.41369548 5.44821729 -5.37109375 1.22265625 C-3 0 -3 0 0 0 Z " fill="#166533" transform="translate(955,274)"/>
</svg>
